PathFileType	4	(X/Y/Z)	Patient4_TMGait_0pt2_02_right_08.trc.trc
DataRate	CameraRate	NumFrames	NumMarkers	Units	OrigDataRate	OrigDataStartFrame	OrigNumFrames
43.343653250774	43.343653250774	5	33	mm	43.343653250774	1	       141
Frame#	Time	R.Midfoot.Superior			Sacral			L.Shoulder			Chest			R.Shoulder			Neck			R.ASIS			L.ASIS			R.Thigh.Superior			R.Thigh.Lateral			R.Thigh.Inferior			R.Patella			L.Thigh.Superior			L.Thigh.Lateral			L.Thigh.Inferior			L.Patella			L.Shank.Superior			L.Shank.Lateral			L.Shank.Inferior			R.Shank.Superior			R.Shank.Lateral			R.Shank.Inferior			R.Heel			R.Midfoot.Lateral			R.Toe			L.Heel			L.Midfoot.Lateral			L.Midfoot.Superior			L.Toe			L.Elbow			L.Wrist			R.Elbow			R.Wrist			
		X1	Y1	Z1	X2	Y2	Z2	X3	Y3	Z3	X4	Y4	Z4	X5	Y5	Z5	X6	Y6	Z6	X7	Y7	Z7	X8	Y8	Z8	X9	Y9	Z9	X10	Y10	Z10	X11	Y11	Z11	X12	Y12	Z12	X13	Y13	Z13	X14	Y14	Z14	X15	Y15	Z15	X16	Y16	Z16	X17	Y17	Z17	X18	Y18	Z18	X19	Y19	Z19	X20	Y20	Z20	X21	Y21	Z21	X22	Y22	Z22	X23	Y23	Z23	X24	Y24	Z24	X25	Y25	Z25	X26	Y26	Z26	X27	Y27	Z27	X28	Y28	Z28	X29	Y29	Z29	X30	Y30	Z30	X31	Y31	Z31	X32	Y32	Z32	X33	Y33	Z33	

1	16.870000000000	781.076058731134	114.824137006338	613.624351719789	815.890673391878	994.517957995858	428.284143608982	1007.352704638871	1419.817889039540	250.709842139975	1115.781257571244	1336.646795076889	401.155017538712	1050.853697785036	1405.857402472989	582.909644425223	1001.115297248785	1475.201781360143	411.994283993526	1046.247944410130	914.694879032858	533.906425602200	1023.732878024599	943.181002854686	263.334692711533	1063.805415218685	706.095597242068	520.165752960001	974.507309404641	610.137339605515	595.075739542691	1044.526556932072	539.713032925687	521.930948910522	1026.956615109162	437.195219261817	547.796274437275	1089.393999503240	747.359852218782	315.503869627580	1024.191686389979	611.772474889996	261.982468569363	1114.798270437401	550.712395937182	336.973543503767	1123.116561596516	473.679537309977	348.092997628503	1080.905469257618	399.135325433342	344.427026640374	976.697439155891	297.327363057862	295.299312589812	1003.214388309268	183.719313734915	371.306060482727	949.580421924783	374.394548747355	563.711077767170	833.376574767129	339.467376052775	635.222266035952	813.076290248709	229.020966091459	591.623951384711	606.170453658423	156.553643971089	585.915115098954	676.352864728043	104.590045308808	654.586848136757	857.252073969097	34.012802534300	633.067430510876	853.804107909482	40.886302043666	413.325822453936	927.382688867350	37.134211041387	333.156032119080	1012.660448994648	95.709634551874	360.612830999865	1139.374613293448	40.112842100363	329.235223438559	993.229495649194	1074.204406964793	112.751380034047	1066.419606279477	820.898885171213	119.436983678284	1114.052500363919	1049.904326036925	674.428602237179	1273.609374067699	842.494896438230	687.927575520292	
2	16.893071428571	785.191066577934	121.414725156748	611.880393696938	814.621526979844	993.682668493622	424.806840692174	1010.254685916993	1419.277003548392	249.877284729176	1115.600006969338	1335.864850324993	402.187571785257	1047.341653768127	1404.819159506334	582.882274245402	1001.307289628240	1474.524692628004	411.085459403318	1044.394746685616	914.635243322397	532.753117038117	1023.884536369067	942.696077058421	261.649206525546	1069.740977745014	709.196856213581	516.758067061202	985.192261722182	610.478617436808	592.354775958793	1057.474884243663	542.220006962740	518.443182823857	1042.351298610435	437.987050612512	544.727515602803	1088.835581792280	746.037504621651	313.284810680199	1022.624811431143	610.880310082946	260.388489867785	1112.676672257775	549.548530539251	335.912520188620	1120.575277013284	472.624928111771	347.453646625968	1077.969841969430	398.196326182600	343.830182720346	973.533192691426	296.701590851683	294.534195040064	999.119894670623	183.242177619325	371.039754524183	963.211669693586	375.537543484295	560.533623954229	845.841720246256	345.050667554712	632.304782277624	821.769036604274	235.230926084011	589.175142959955	613.590315609448	173.655984743671	582.955754720236	679.967739107880	118.007279808918	652.145128824030	854.917736685011	32.648708507991	632.486332772690	849.162162885880	40.781232288247	413.176352624229	922.763181280772	37.044182356524	332.954428749504	1008.030525465695	95.619918734940	360.509035014174	1134.775668053500	40.098053212860	329.198387405276	1009.603784697561	1075.617678896978	109.162913770007	1096.566613780446	827.938311107337	117.875530975279	1086.637535433047	1047.565495845715	675.070237586310	1225.803389272079	829.677379082404	689.810261627127	
3	16.916142857143	790.308633463825	128.050224068243	609.897813394753	813.246322487672	993.098225521490	421.311017734860	1013.349576978398	1418.921647130841	249.116186492111	1115.403144357545	1335.279403745890	403.391630648350	1043.633575107789	1404.056348842000	582.892117139384	1001.524470713160	1474.050141631999	410.223718374434	1042.343072264778	914.840821750113	531.659419540056	1024.045012788766	942.384109491687	260.055294046181	1075.619054784398	712.853015840913	513.337414942247	996.156102276756	611.340626530603	589.627513103035	1070.600860350794	545.381480861841	514.855883542132	1058.145265054821	439.395151046814	541.554705538528	1088.091431321276	744.750388067278	311.151910031764	1020.755197011329	610.107168752155	258.882214425948	1110.168999341363	548.425104558260	334.932836107613	1117.596244443879	471.651613835163	346.900352681593	1074.632189859089	397.363843876613	343.282638477332	970.035364988561	296.128837019173	293.792335117417	994.761173406163	182.818748172181	370.784584667093	977.297480783745	377.156523792754	557.279345156923	858.708369107952	350.834071661145	629.234158494451	831.124833179665	241.506372532575	586.560661329159	621.604312092145	189.964987652806	579.826594013980	684.529420383682	130.940018931183	649.541856094868	854.109127637943	31.569476290559	631.675118585223	844.309914046913	40.674401295847	413.024167267386	917.938693597395	36.952750333928	332.753888544716	1003.193444690973	95.533944202654	360.400790199978	1129.971610874290	40.082801154698	329.162498150893	1026.477202412179	1077.521589576760	105.562504432251	1127.884985476733	836.161750042247	116.519107674368	1058.216200590149	1046.139372245834	675.691683310880	1176.059353976861	818.106232274778	691.380602503020	
4	16.939214285714	796.890049524811	134.335559204947	607.739974203109	811.782723157057	992.900582535717	417.919494706564	1016.596523781013	1418.839959026027	248.497082877604	1115.192510010097	1335.000323823741	404.799016351709	1039.800892863273	1403.729655300168	582.955957682280	1001.770514330099	1473.884609954441	409.463031847146	1040.104532755274	915.426386605064	530.740194335844	1024.225031474863	942.329666228537	258.683272106401	1081.127242256983	717.110877731593	510.085079623630	1006.942934353586	612.876213175098	587.052783375303	1083.348699588580	549.300996963956	511.336699965787	1073.768856255170	441.626295883422	538.426616021140	1087.105612096935	743.564381769988	309.241921376794	1018.513407491155	609.542720345370	257.554150023660	1107.185949037523	547.404616495765	334.101085908388	1114.080694474702	470.837823255510	346.479465597703	1070.832197554543	396.721780983126	342.814328290225	966.180673090826	295.656074833377	293.107262730070	990.188941488992	182.491833684226	370.551912453731	991.433175145217	379.358089219988	554.107921823195	871.666100226599	356.524829237455	626.146441377222	841.192429806531	247.486533989414	583.887342774895	630.404022565235	204.197044018024	576.643273871817	690.529097651780	142.436709693873	646.885078602964	855.824563906942	30.902932014957	630.663308825728	839.350324374459	40.568980977091	412.875225232776	913.013361826089	36.863129058190	332.562338918006	998.252903544400	95.457214532657	360.289466208657	1125.066000884327	40.068464692267	329.129715178363	1043.366247171512	1080.035404866998	102.118823221404	1159.552714797404	845.782447273782	115.526690434956	1029.581019217199	1046.079458064519	676.222897186817	1125.720070815079	808.800919529576	692.430534998594	
5	16.962285714286	805.472176300544	139.847120796377	605.521000415505	810.252339868490	993.197083992637	414.719617865982	1019.965621571663	1419.094433865826	248.080496551463	1114.970291738462	1335.112504397549	406.438645086903	1035.905293720792	1403.971408016626	583.086247177693	1002.050105246602	1474.110350887152	408.843592895537	1037.679032691166	916.477426095000	530.107252448173	1024.445158292381	942.595717848161	257.655028112168	1085.983738541639	721.970066930201	507.184683387531	1017.111264658023	615.177317954313	584.782917990668	1095.206719591299	554.016447260921	508.067137451669	1088.697540493216	444.834716986604	535.510604505680	1085.829380697619	742.528728567872	307.672473120743	1015.837711271590	609.259901838877	256.467802978775	1103.642723839183	546.536249275540	333.463471311359	1109.929720359324	470.246021917057	346.216963015249	1066.506944772095	396.338207929323	342.438164920308	961.936071688094	295.319647160184	292.499231462718	985.433568935155	182.296245977461	370.347260666224	1005.275947819051	382.197459588712	551.193632263059	884.491710717014	361.784553001589	623.207332625101	852.106025952577	252.783111125323	581.295206000202	640.305758029260	215.100823189528	573.557089511401	698.544495729613	151.557789994430	644.317657126836	861.104287629999	30.749751382369	629.530145780727	834.360218714151	40.466698872486	412.734695168319	908.064822274009	36.777700755158	332.385297974518	993.286287921873	95.394271700004	360.175274382432	1120.136167583028	40.056826377556	329.101657887319	1059.883023209964	1083.237429968871	98.983800666899	1190.886107090983	856.990906459112	115.032663713217	1001.415576280609	1047.733196681016	676.581458931577	1075.968955226218	802.555801020363	692.800795010410	
